<?xml version="1.0" encoding="UTF-8" standalone="no"?>
<!DOCTYPE svg PUBLIC "-//W3C//DTD SVG 1.0//EN" "http://www.w3.org/TR/2001/PR-SVG-20010719/DTD/svg10.dtd">
<svg width="36cm" height="22cm" viewBox="273 47 708 421" xmlns="http://www.w3.org/2000/svg" xmlns:xlink="http://www.w3.org/1999/xlink">
  <g>
    <ellipse style="fill: #ffffff" cx="736.724" cy="410.088" rx="56.724" ry="56.724"/>
    <ellipse style="fill: none; fill-opacity:0; stroke-width: 2; stroke: #000000" cx="736.724" cy="410.088" rx="56.724" ry="56.724"/>
  </g>
  <g>
    <ellipse style="fill: #ffffff" cx="736.724" cy="410.086" rx="35.7422" ry="35.7422"/>
    <ellipse style="fill: none; fill-opacity:0; stroke-width: 2; stroke: #000000" cx="736.724" cy="410.086" rx="35.7422" ry="35.7422"/>
  </g>
  <g>
    <rect style="fill: #ffffff" x="440" y="360" width="160" height="80"/>
    <rect style="fill: none; fill-opacity:0; stroke-width: 2; stroke: #000000" x="440" y="360" width="160" height="80"/>
  </g>
  <text font-size="12.8" style="fill: #000000;text-anchor:middle;font-family:sans-serif;font-style:normal;font-weight:normal" x="520" y="371.9">
    <tspan x="520" y="371.9">real-time program</tspan>
  </text>
  <g>
    <rect style="fill: #ffffff" x="460" y="380.088" width="140" height="60"/>
    <rect style="fill: none; fill-opacity:0; stroke-width: 2; stroke: #000000" x="460" y="380.088" width="140" height="60"/>
  </g>
  <text font-size="12.8" style="fill: #000000;text-anchor:middle;font-family:sans-serif;font-style:normal;font-weight:normal" x="530" y="412.538">
    <tspan x="530" y="412.538">injected CFI code</tspan>
  </text>
  <text font-size="12.8" style="fill: #000000;text-anchor:middle;font-family:sans-serif;font-style:normal;font-weight:normal" x="736.724" y="413.038">
    <tspan x="736.724" y="413.038">buffer</tspan>
  </text>
  <g>
    <line style="fill: none; fill-opacity:0; stroke-width: 2; stroke: #000000" x1="600" y1="410.088" x2="675.528" y2="410.088"/>
    <polyline style="fill: none; fill-opacity:0; stroke-width: 2; stroke: #000000" points="667.764,415.088 677.764,410.088 667.764,405.088 "/>
  </g>
  <text font-size="12.8" style="fill: #000000;text-anchor:middle;font-family:sans-serif;font-style:normal;font-weight:normal" x="640" y="404.038">
    <tspan x="640" y="404.038">write</tspan>
    <tspan x="640" y="420.038"></tspan>
  </text>
  <g>
    <rect style="fill: #ffffff" x="860" y="380.088" width="120" height="60"/>
    <rect style="fill: none; fill-opacity:0; stroke-width: 2; stroke: #000000" x="860" y="380.088" width="120" height="60"/>
  </g>
  <text font-size="12.8" style="fill: #000000;text-anchor:middle;font-family:sans-serif;font-style:normal;font-weight:normal" x="920" y="396.538">
    <tspan x="920" y="396.538">non-real-time</tspan>
    <tspan x="920" y="412.538">best-effort</tspan>
    <tspan x="920" y="428.538">CFI verification</tspan>
  </text>
  <g>
    <line style="fill: none; fill-opacity:0; stroke-width: 2; stroke: #000000" x1="860" y1="410.088" x2="797.92" y2="410.088"/>
    <polyline style="fill: none; fill-opacity:0; stroke-width: 2; stroke: #000000" points="805.684,405.088 795.684,410.088 805.684,415.088 "/>
  </g>
  <text font-size="12.8" style="fill: #000000;text-anchor:middle;font-family:sans-serif;font-style:normal;font-weight:normal" x="826.724" y="404.038">
    <tspan x="826.724" y="404.038">read</tspan>
    <tspan x="826.724" y="420.038"></tspan>
  </text>
  <g>
    <rect style="fill: #ffffff" x="708" y="300" width="80" height="20"/>
    <rect style="fill: none; fill-opacity:0; stroke-width: 2; stroke: #000000" x="708" y="300" width="80" height="20"/>
  </g>
  <text font-size="12.8" style="fill: #000000;text-anchor:middle;font-family:sans-serif;font-style:normal;font-weight:normal" x="748" y="314.45">
    <tspan x="748" y="314.45">heuristic</tspan>
  </text>
  <g>
    <rect style="fill: #ffffff" x="800" y="300" width="70" height="20"/>
    <rect style="fill: none; fill-opacity:0; stroke-width: 2; stroke: #000000" x="800" y="300" width="70" height="20"/>
  </g>
  <text font-size="12.8" style="fill: #000000;text-anchor:middle;font-family:sans-serif;font-style:normal;font-weight:normal" x="835" y="314.45">
    <tspan x="835" y="314.45">heuristic</tspan>
  </text>
  <g>
    <rect style="fill: #ffffff" x="880" y="300" width="80" height="20"/>
    <rect style="fill: none; fill-opacity:0; stroke-width: 2; stroke: #000000" x="880" y="300" width="80" height="20"/>
  </g>
  <text font-size="12.8" style="fill: #000000;text-anchor:middle;font-family:sans-serif;font-style:normal;font-weight:normal" x="920" y="314.45">
    <tspan x="920" y="314.45">heuristic</tspan>
  </text>
  <line style="fill: none; fill-opacity:0; stroke-width: 2; stroke: #000000" x1="736.724" y1="353.364" x2="736.724" y2="374.344"/>
  <line style="fill: none; fill-opacity:0; stroke-width: 2; stroke: #000000" x1="696.614" y1="369.978" x2="711.45" y2="384.814"/>
  <line style="fill: none; fill-opacity:0; stroke-width: 2; stroke: #000000" x1="700.982" y1="410.088" x2="680" y2="410.088"/>
  <line style="fill: none; fill-opacity:0; stroke-width: 2; stroke: #000000" x1="711.45" y1="435.36" x2="696.614" y2="450.198"/>
  <line style="fill: none; fill-opacity:0; stroke-width: 2; stroke: #000000" x1="736.724" y1="445.83" x2="736.724" y2="466.812"/>
  <line style="fill: none; fill-opacity:0; stroke-width: 2; stroke: #000000" x1="761.998" y1="435.36" x2="776.834" y2="450.198"/>
  <line style="fill: none; fill-opacity:0; stroke-width: 2; stroke: #000000" x1="772.466" y1="410.088" x2="793.448" y2="410.088"/>
  <line style="fill: none; fill-opacity:0; stroke-width: 2; stroke: #000000" x1="761.998" y1="384.814" x2="776.834" y2="369.978"/>
  <g>
    <rect style="fill: #ffffff" x="440" y="240" width="160" height="20"/>
    <rect style="fill: none; fill-opacity:0; stroke-width: 2; stroke: #000000" x="440" y="240" width="160" height="20"/>
  </g>
  <text font-size="12.8" style="fill: #000000;text-anchor:middle;font-family:sans-serif;font-style:normal;font-weight:normal" x="520" y="251.9">
    <tspan x="520" y="251.9">Assembly injector</tspan>
  </text>
  <g>
    <rect style="fill: #ffffff" x="440" y="300" width="160" height="20"/>
    <rect style="fill: none; fill-opacity:0; stroke-width: 2; stroke: #000000" x="440" y="300" width="160" height="20"/>
  </g>
  <text font-size="12.8" style="fill: #000000;text-anchor:middle;font-family:sans-serif;font-style:normal;font-weight:normal" x="520" y="311.9">
    <tspan x="520" y="311.9">Assembler</tspan>
  </text>
  <g>
    <line style="fill: none; fill-opacity:0; stroke-width: 2; stroke: #000000" x1="520" y1="260.999" x2="520" y2="295.528"/>
    <polyline style="fill: none; fill-opacity:0; stroke-width: 2; stroke: #000000" points="515,287.764 520,297.764 525,287.764 "/>
  </g>
  <g>
    <line style="fill: none; fill-opacity:0; stroke-width: 2; stroke: #000000" x1="520" y1="320" x2="520" y2="355.528"/>
    <polyline style="fill: none; fill-opacity:0; stroke-width: 2; stroke: #000000" points="515,347.764 520,357.764 525,347.764 "/>
  </g>
  <g>
    <rect style="fill: #ffffff" x="668" y="100" width="160" height="20"/>
    <rect style="fill: none; fill-opacity:0; stroke-width: 2; stroke: #000000" x="668" y="100" width="160" height="20"/>
  </g>
  <text font-size="12.8" style="fill: #000000;text-anchor:middle;font-family:sans-serif;font-style:normal;font-weight:normal" x="748" y="111.9">
    <tspan x="748" y="111.9">CFG Generator</tspan>
  </text>
  <g>
    <rect style="fill: #ffffff" x="668" y="240" width="160" height="20"/>
    <rect style="fill: none; fill-opacity:0; stroke-width: 2; stroke: #000000" x="668" y="240" width="160" height="20"/>
  </g>
  <text font-size="12.8" style="fill: #000000;text-anchor:middle;font-family:sans-serif;font-style:normal;font-weight:normal" x="748" y="251.9">
    <tspan x="748" y="251.9">Control Flow Graph 2</tspan>
  </text>
  <g>
    <rect style="fill: #ffffff" x="440" y="100" width="160" height="20"/>
    <rect style="fill: none; fill-opacity:0; stroke-width: 2; stroke: #000000" x="440" y="100" width="160" height="20"/>
  </g>
  <text font-size="12.8" style="fill: #000000;text-anchor:middle;font-family:sans-serif;font-style:normal;font-weight:normal" x="520" y="111.9">
    <tspan x="520" y="111.9">Program assembly</tspan>
  </text>
  <g>
    <line style="fill: none; fill-opacity:0; stroke-width: 2; stroke: #000000" x1="600.974" y1="110" x2="663.528" y2="110"/>
    <polyline style="fill: none; fill-opacity:0; stroke-width: 2; stroke: #000000" points="655.764,115 665.764,110 655.764,105 "/>
  </g>
  <g>
    <line style="fill: none; fill-opacity:0; stroke-width: 2; stroke: #000000" x1="520" y1="120" x2="520" y2="235.528"/>
    <polyline style="fill: none; fill-opacity:0; stroke-width: 2; stroke: #000000" points="515,227.764 520,237.764 525,227.764 "/>
  </g>
  <g>
    <line style="fill: none; fill-opacity:0; stroke-width: 2; stroke: #000000" x1="748" y1="120.999" x2="748" y2="155.528"/>
    <polyline style="fill: none; fill-opacity:0; stroke-width: 2; stroke: #000000" points="743,147.764 748,157.764 753,147.764 "/>
  </g>
  <g>
    <line style="fill: none; fill-opacity:0; stroke-width: 2; stroke: #000000" x1="600" y1="250" x2="663.528" y2="250"/>
    <polyline style="fill: none; fill-opacity:0; stroke-width: 2; stroke: #000000" points="655.764,255 665.764,250 655.764,245 "/>
  </g>
  <line style="fill: none; fill-opacity:0; stroke-width: 2; stroke-dasharray: 4; stroke: #000000" x1="748" y1="299.102" x2="748" y2="260.898"/>
  <line style="fill: none; fill-opacity:0; stroke-width: 2; stroke-dasharray: 4; stroke: #000000" x1="819.197" y1="299.102" x2="763.803" y2="260.898"/>
  <g>
    <line style="fill: none; fill-opacity:0; stroke-width: 2; stroke: #000000" x1="866.733" y1="379.092" x2="770.772" y2="323.251"/>
    <polyline style="fill: none; fill-opacity:0; stroke-width: 2; stroke: #000000" points="779.998,322.835 768.84,322.127 774.968,331.478 "/>
  </g>
  <g>
    <line style="fill: none; fill-opacity:0; stroke-width: 2; stroke: #000000" x1="893.676" y1="379.092" x2="847.238" y2="324.411"/>
    <polyline style="fill: none; fill-opacity:0; stroke-width: 2; stroke: #000000" points="856.075,327.092 845.791,322.706 848.453,333.565 "/>
  </g>
  <g>
    <line style="fill: none; fill-opacity:0; stroke-width: 2; stroke: #000000" x1="920" y1="379.092" x2="920" y2="325.474"/>
    <polyline style="fill: none; fill-opacity:0; stroke-width: 2; stroke: #000000" points="925,333.238 920,323.238 915,333.238 "/>
  </g>
  <line style="fill: none; fill-opacity:0; stroke-width: 2; stroke-dasharray: 4; stroke: #000000" x1="888.758" y1="299.102" x2="779.242" y2="260.898"/>
  <g>
    <line style="fill: none; fill-opacity:0; stroke-width: 2; stroke: #000000" x1="520" y1="70" x2="520" y2="95.5279"/>
    <line style="fill: none; fill-opacity:0; stroke-width: 2; stroke: #000000" x1="520" y1="50" x2="520" y2="54"/>
    <line style="fill: none; fill-opacity:0; stroke-width: 2; stroke: #000000" x1="520" y1="56.6667" x2="520" y2="60.6667"/>
    <line style="fill: none; fill-opacity:0; stroke-width: 2; stroke: #000000" x1="520" y1="63.3333" x2="520" y2="67.3333"/>
    <polyline style="fill: none; fill-opacity:0; stroke-width: 2; stroke: #000000" points="515,87.7639 520,97.7639 525,87.7639 "/>
  </g>
  <g>
    <rect style="fill: #ffffff" x="668" y="160" width="160" height="20"/>
    <rect style="fill: none; fill-opacity:0; stroke-width: 2; stroke: #000000" x="668" y="160" width="160" height="20"/>
  </g>
  <text font-size="12.8" style="fill: #000000;text-anchor:middle;font-family:sans-serif;font-style:normal;font-weight:normal" x="748" y="171.9">
    <tspan x="748" y="171.9">Control Flow Graph</tspan>
  </text>
  <g>
    <polyline style="fill: none; fill-opacity:0; stroke-width: 2; stroke: #000000" points="668,170 520,170 520,235.528 "/>
    <polyline style="fill: none; fill-opacity:0; stroke-width: 2; stroke: #000000" points="515,227.764 520,237.764 525,227.764 "/>
  </g>
  <g>
    <polyline style="fill: none; fill-opacity:0; stroke-width: 2; stroke-dasharray: 4; stroke: #000000" points="440,310 419,310 419,250 435.528,250 "/>
    <polyline style="fill: none; fill-opacity:0; stroke-width: 2; stroke: #000000" points="427.764,255 437.764,250 427.764,245 "/>
  </g>
  <text font-size="12.7998" style="fill: #000000;text-anchor:start;font-family:sans-serif;font-style:normal;font-weight:normal" x="273" y="262.5">
    <tspan x="273" y="262.5">Proposed solution:</tspan>
    <tspan x="273" y="278.5">Function offsets from</tspan>
    <tspan x="273" y="294.5">assembled program</tspan>
  </text>
</svg>
