<?xml version="1.0" encoding="UTF-8" standalone="no"?>
<!DOCTYPE svg PUBLIC "-//W3C//DTD SVG 1.1//EN"
 "http://www.w3.org/Graphics/SVG/1.1/DTD/svg11.dtd">
<!-- Generated by graphviz version 2.38.0 (20140413.2041)
 -->
<!-- Title: G Pages: 1 -->
<svg width="286pt" height="1363pt"
 viewBox="0.00 0.00 286.00 1363.00" xmlns="http://www.w3.org/2000/svg" xmlns:xlink="http://www.w3.org/1999/xlink">
<g id="graph0" class="graph" transform="scale(1 1) rotate(0) translate(4 1359)">
<title>G</title>
<polygon fill="white" stroke="none" points="-4,4 -4,-1359 282,-1359 282,4 -4,4"/>
<!-- 0 -->
<g id="node1" class="node"><title>0</title>
<path fill="none" stroke="black" d="M70.5,-454.5C70.5,-454.5 204.5,-454.5 204.5,-454.5 210.5,-454.5 216.5,-460.5 216.5,-466.5 216.5,-466.5 216.5,-530.5 216.5,-530.5 216.5,-536.5 210.5,-542.5 204.5,-542.5 204.5,-542.5 70.5,-542.5 70.5,-542.5 64.5,-542.5 58.5,-536.5 58.5,-530.5 58.5,-530.5 58.5,-466.5 58.5,-466.5 58.5,-460.5 64.5,-454.5 70.5,-454.5"/>
<text text-anchor="middle" x="137.5" y="-532.1" font-family="monospace" font-size="8.00">0x010534 (0x010534) vuln</text>
<polyline fill="none" stroke="black" points="58.5,-525.5 216.5,-525.5 "/>
<text text-anchor="start" x="66.5" y="-515.1" font-family="monospace" font-size="8.00">0x10534:push{fp, lr}</text>
<text text-anchor="start" x="66.5" y="-506.1" font-family="monospace" font-size="8.00">0x10538:addfp, sp, #4</text>
<text text-anchor="start" x="66.5" y="-497.1" font-family="monospace" font-size="8.00">0x1053c:subsp, sp, #0x18</text>
<text text-anchor="start" x="66.5" y="-488.1" font-family="monospace" font-size="8.00">0x10540:strr0, [fp, #&#45;0x18]</text>
<text text-anchor="start" x="66.5" y="-479.1" font-family="monospace" font-size="8.00">0x10544:subr3, fp, #0x10</text>
<text text-anchor="start" x="66.5" y="-470.1" font-family="monospace" font-size="8.00">0x10548:movr0, r3</text>
<text text-anchor="start" x="66.5" y="-461.1" font-family="monospace" font-size="8.00">0x1054c:bl#0x10364</text>
</g>
<!-- 1 -->
<g id="node2" class="node"><title>1</title>
<path fill="none" stroke="black" d="M63,-356.5C63,-356.5 208,-356.5 208,-356.5 214,-356.5 220,-362.5 220,-368.5 220,-368.5 220,-405.5 220,-405.5 220,-411.5 214,-417.5 208,-417.5 208,-417.5 63,-417.5 63,-417.5 57,-417.5 51,-411.5 51,-405.5 51,-405.5 51,-368.5 51,-368.5 51,-362.5 57,-356.5 63,-356.5"/>
<text text-anchor="middle" x="135.5" y="-407.1" font-family="monospace" font-size="8.00">0x010550 (0x010534) vuln+0x1c</text>
<polyline fill="none" stroke="black" points="51,-400.5 220,-400.5 "/>
<text text-anchor="start" x="59" y="-390.1" font-family="monospace" font-size="8.00">0x10550:movr3, lr</text>
<text text-anchor="start" x="59" y="-381.1" font-family="monospace" font-size="8.00">0x10554:ldrr0, [pc, #0xc]</text>
<text text-anchor="start" x="59" y="-372.1" font-family="monospace" font-size="8.00">0x10558:movr1, r3</text>
<text text-anchor="start" x="59" y="-363.1" font-family="monospace" font-size="8.00">0x1055c:bl#0x10358</text>
</g>
<!-- 0&#45;&gt;1 -->
<g id="edge9" class="edge"><title>0&#45;&gt;1</title>
<path fill="none" stroke="black" stroke-dasharray="1,5" d="M136.71,-454.223C136.551,-445.553 136.385,-436.481 136.229,-427.931"/>
<polygon fill="black" stroke="black" points="139.727,-427.756 136.045,-417.822 132.728,-427.884 139.727,-427.756"/>
</g>
<!-- 2 -->
<g id="node3" class="node"><title>2</title>
<path fill="none" stroke="black" d="M63,-276.5C63,-276.5 208,-276.5 208,-276.5 214,-276.5 220,-282.5 220,-288.5 220,-288.5 220,-307.5 220,-307.5 220,-313.5 214,-319.5 208,-319.5 208,-319.5 63,-319.5 63,-319.5 57,-319.5 51,-313.5 51,-307.5 51,-307.5 51,-288.5 51,-288.5 51,-282.5 57,-276.5 63,-276.5"/>
<text text-anchor="middle" x="135.5" y="-309.1" font-family="monospace" font-size="8.00">0x010560 (0x010534) vuln+0x2c</text>
<polyline fill="none" stroke="black" points="51,-302.5 220,-302.5 "/>
<text text-anchor="start" x="59" y="-292.1" font-family="monospace" font-size="8.00">0x10560:subsp, fp, #4</text>
<text text-anchor="start" x="59" y="-283.1" font-family="monospace" font-size="8.00">0x10564:pop{fp, pc}</text>
</g>
<!-- 1&#45;&gt;2 -->
<g id="edge13" class="edge"><title>1&#45;&gt;2</title>
<path fill="none" stroke="black" stroke-dasharray="1,5" d="M135.5,-356.06C135.5,-347.627 135.5,-338.439 135.5,-329.948"/>
<polygon fill="black" stroke="black" points="139,-329.676 135.5,-319.676 132,-329.676 139,-329.676"/>
</g>
<!-- 10 -->
<g id="node11" class="node"><title>10</title>
<path fill="none" stroke="black" d="M119,-178.5C119,-178.5 264,-178.5 264,-178.5 270,-178.5 276,-184.5 276,-190.5 276,-190.5 276,-227.5 276,-227.5 276,-233.5 270,-239.5 264,-239.5 264,-239.5 119,-239.5 119,-239.5 113,-239.5 107,-233.5 107,-227.5 107,-227.5 107,-190.5 107,-190.5 107,-184.5 113,-178.5 119,-178.5"/>
<text text-anchor="middle" x="191.5" y="-229.1" font-family="monospace" font-size="8.00">0x01063c (0x0105e8) main+0x54</text>
<polyline fill="none" stroke="black" points="107,-222.5 276,-222.5 "/>
<text text-anchor="start" x="115" y="-212.1" font-family="monospace" font-size="8.00">0x1063c:movr3, lr</text>
<text text-anchor="start" x="115" y="-203.1" font-family="monospace" font-size="8.00">0x10640:ldrr0, [pc, #0x2c]</text>
<text text-anchor="start" x="115" y="-194.1" font-family="monospace" font-size="8.00">0x10644:movr1, r3</text>
<text text-anchor="start" x="115" y="-185.1" font-family="monospace" font-size="8.00">0x10648:bl#0x10358</text>
</g>
<!-- 2&#45;&gt;10 -->
<g id="edge4" class="edge"><title>2&#45;&gt;10</title>
<path fill="none" stroke="grey" d="M148.771,-276.382C154.17,-267.995 160.589,-258.022 166.79,-248.388"/>
<polygon fill="grey" stroke="grey" points="169.919,-249.994 172.388,-239.691 164.033,-246.206 169.919,-249.994"/>
</g>
<!-- 3 -->
<g id="node4" class="node"><title>3</title>
<path fill="none" stroke="black" d="M12,-980.5C12,-980.5 141,-980.5 141,-980.5 147,-980.5 153,-986.5 153,-992.5 153,-992.5 153,-1083.5 153,-1083.5 153,-1089.5 147,-1095.5 141,-1095.5 141,-1095.5 12,-1095.5 12,-1095.5 6,-1095.5 0,-1089.5 0,-1083.5 0,-1083.5 0,-992.5 0,-992.5 0,-986.5 6,-980.5 12,-980.5"/>
<text text-anchor="middle" x="76.5" y="-1085.1" font-family="monospace" font-size="8.00">0x01056c (0x01056c) dummya</text>
<polyline fill="none" stroke="black" points="0,-1078.5 153,-1078.5 "/>
<text text-anchor="start" x="8" y="-1068.1" font-family="monospace" font-size="8.00">0x1056c:strfp, [sp, #&#45;4]!</text>
<text text-anchor="start" x="8" y="-1059.1" font-family="monospace" font-size="8.00">0x10570:addfp, sp, #0</text>
<text text-anchor="start" x="8" y="-1050.1" font-family="monospace" font-size="8.00">0x10574:subsp, sp, #0xc</text>
<text text-anchor="start" x="8" y="-1041.1" font-family="monospace" font-size="8.00">0x10578:strr0, [fp, #&#45;8]</text>
<text text-anchor="start" x="8" y="-1032.1" font-family="monospace" font-size="8.00">0x1057c:strr1, [fp, #&#45;0xc]</text>
<text text-anchor="start" x="8" y="-1023.1" font-family="monospace" font-size="8.00">0x10580:movr3, #5</text>
<text text-anchor="start" x="8" y="-1014.1" font-family="monospace" font-size="8.00">0x10584:movr0, r3</text>
<text text-anchor="start" x="8" y="-1005.1" font-family="monospace" font-size="8.00">0x10588:subsp, fp, #0</text>
<text text-anchor="start" x="8" y="-996.1" font-family="monospace" font-size="8.00">0x1058c:pop{fp}</text>
<text text-anchor="start" x="8" y="-987.1" font-family="monospace" font-size="8.00">0x10590:bxlr</text>
</g>
<!-- 5 -->
<g id="node6" class="node"><title>5</title>
<path fill="none" stroke="black" d="M61.5,-891.5C61.5,-891.5 211.5,-891.5 211.5,-891.5 217.5,-891.5 223.5,-897.5 223.5,-903.5 223.5,-903.5 223.5,-931.5 223.5,-931.5 223.5,-937.5 217.5,-943.5 211.5,-943.5 211.5,-943.5 61.5,-943.5 61.5,-943.5 55.5,-943.5 49.5,-937.5 49.5,-931.5 49.5,-931.5 49.5,-903.5 49.5,-903.5 49.5,-897.5 55.5,-891.5 61.5,-891.5"/>
<text text-anchor="middle" x="136.5" y="-933.1" font-family="monospace" font-size="8.00">0x0105dc (0x0105bc) func1+0x20</text>
<polyline fill="none" stroke="black" points="49.5,-926.5 223.5,-926.5 "/>
<text text-anchor="start" x="57.5" y="-916.1" font-family="monospace" font-size="8.00">0x105dc:movr0, r0</text>
<text text-anchor="start" x="57.5" y="-907.1" font-family="monospace" font-size="8.00">0x105e0:subsp, fp, #4</text>
<text text-anchor="start" x="57.5" y="-898.1" font-family="monospace" font-size="8.00">0x105e4:pop{fp, pc}</text>
</g>
<!-- 3&#45;&gt;5 -->
<g id="edge8" class="edge"><title>3&#45;&gt;5</title>
<path fill="none" stroke="grey" d="M105.27,-980.18C110.041,-970.757 114.853,-961.253 119.223,-952.622"/>
<polygon fill="grey" stroke="grey" points="122.374,-954.147 123.769,-943.644 116.129,-950.985 122.374,-954.147"/>
</g>
<!-- 4 -->
<g id="node5" class="node"><title>4</title>
<path fill="none" stroke="black" d="M87.5,-1132.5C87.5,-1132.5 211.5,-1132.5 211.5,-1132.5 217.5,-1132.5 223.5,-1138.5 223.5,-1144.5 223.5,-1144.5 223.5,-1217.5 223.5,-1217.5 223.5,-1223.5 217.5,-1229.5 211.5,-1229.5 211.5,-1229.5 87.5,-1229.5 87.5,-1229.5 81.5,-1229.5 75.5,-1223.5 75.5,-1217.5 75.5,-1217.5 75.5,-1144.5 75.5,-1144.5 75.5,-1138.5 81.5,-1132.5 87.5,-1132.5"/>
<text text-anchor="middle" x="149.5" y="-1219.1" font-family="monospace" font-size="8.00">0x0105bc (0x0105bc) func1</text>
<polyline fill="none" stroke="black" points="75.5,-1212.5 223.5,-1212.5 "/>
<text text-anchor="start" x="83.5" y="-1202.1" font-family="monospace" font-size="8.00">0x105bc:push{fp, lr}</text>
<text text-anchor="start" x="83.5" y="-1193.1" font-family="monospace" font-size="8.00">0x105c0:addfp, sp, #4</text>
<text text-anchor="start" x="83.5" y="-1184.1" font-family="monospace" font-size="8.00">0x105c4:subsp, sp, #8</text>
<text text-anchor="start" x="83.5" y="-1175.1" font-family="monospace" font-size="8.00">0x105c8:strr0, [fp, #&#45;8]</text>
<text text-anchor="start" x="83.5" y="-1166.1" font-family="monospace" font-size="8.00">0x105cc:ldrr3, [fp, #&#45;8]</text>
<text text-anchor="start" x="83.5" y="-1157.1" font-family="monospace" font-size="8.00">0x105d0:movr0, #5</text>
<text text-anchor="start" x="83.5" y="-1148.1" font-family="monospace" font-size="8.00">0x105d4:movr1, #6</text>
<text text-anchor="start" x="83.5" y="-1139.1" font-family="monospace" font-size="8.00">0x105d8:blxr3</text>
</g>
<!-- 4&#45;&gt;3 -->
<g id="edge15" class="edge"><title>4&#45;&gt;3</title>
<path fill="none" stroke="black" d="M124.786,-1132.26C120.256,-1123.52 115.456,-1114.24 110.707,-1105.07"/>
<polygon fill="black" stroke="black" points="113.694,-1103.23 105.988,-1095.96 107.478,-1106.45 113.694,-1103.23"/>
</g>
<!-- 4&#45;&gt;5 -->
<g id="edge14" class="edge"><title>4&#45;&gt;5</title>
<path fill="none" stroke="black" d="M159.052,-1132.27C165.631,-1091.47 171.544,-1031.38 161.5,-980 159.733,-970.96 156.632,-961.57 153.203,-952.93"/>
<polygon fill="black" stroke="black" points="156.359,-951.405 149.246,-943.552 149.909,-954.127 156.359,-951.405"/>
</g>
<!-- 7 -->
<g id="node8" class="node"><title>7</title>
<path fill="none" stroke="black" d="M121,-784.5C121,-784.5 266,-784.5 266,-784.5 272,-784.5 278,-790.5 278,-796.5 278,-796.5 278,-842.5 278,-842.5 278,-848.5 272,-854.5 266,-854.5 266,-854.5 121,-854.5 121,-854.5 115,-854.5 109,-848.5 109,-842.5 109,-842.5 109,-796.5 109,-796.5 109,-790.5 115,-784.5 121,-784.5"/>
<text text-anchor="middle" x="193.5" y="-844.1" font-family="monospace" font-size="8.00">0x010604 (0x0105e8) main+0x1c</text>
<polyline fill="none" stroke="black" points="109,-837.5 278,-837.5 "/>
<text text-anchor="start" x="117" y="-827.1" font-family="monospace" font-size="8.00">0x10604:ldrr3, [pc, #0x5c]</text>
<text text-anchor="start" x="117" y="-818.1" font-family="monospace" font-size="8.00">0x10608:ldrr3, [r3]</text>
<text text-anchor="start" x="117" y="-809.1" font-family="monospace" font-size="8.00">0x1060c:ldrr0, [pc, #0x58]</text>
<text text-anchor="start" x="117" y="-800.1" font-family="monospace" font-size="8.00">0x10610:movr1, r3</text>
<text text-anchor="start" x="117" y="-791.1" font-family="monospace" font-size="8.00">0x10614:bl#0x10358</text>
</g>
<!-- 5&#45;&gt;7 -->
<g id="edge10" class="edge"><title>5&#45;&gt;7</title>
<path fill="none" stroke="grey" d="M151.476,-891.277C156.577,-882.686 162.431,-872.826 168.117,-863.25"/>
<polygon fill="grey" stroke="grey" points="171.17,-864.964 173.266,-854.578 165.151,-861.39 171.17,-864.964"/>
</g>
<!-- 6 -->
<g id="node7" class="node"><title>6</title>
<path fill="none" stroke="black" d="M136,-1266.5C136,-1266.5 265,-1266.5 265,-1266.5 271,-1266.5 277,-1272.5 277,-1278.5 277,-1278.5 277,-1342.5 277,-1342.5 277,-1348.5 271,-1354.5 265,-1354.5 265,-1354.5 136,-1354.5 136,-1354.5 130,-1354.5 124,-1348.5 124,-1342.5 124,-1342.5 124,-1278.5 124,-1278.5 124,-1272.5 130,-1266.5 136,-1266.5"/>
<text text-anchor="middle" x="200.5" y="-1344.1" font-family="monospace" font-size="8.00">0x0105e8 (0x0105e8) main</text>
<polyline fill="none" stroke="black" points="124,-1337.5 277,-1337.5 "/>
<text text-anchor="start" x="132" y="-1327.1" font-family="monospace" font-size="8.00">0x105e8:push{fp, lr}</text>
<text text-anchor="start" x="132" y="-1318.1" font-family="monospace" font-size="8.00">0x105ec:addfp, sp, #4</text>
<text text-anchor="start" x="132" y="-1309.1" font-family="monospace" font-size="8.00">0x105f0:subsp, sp, #8</text>
<text text-anchor="start" x="132" y="-1300.1" font-family="monospace" font-size="8.00">0x105f4:strr0, [fp, #&#45;8]</text>
<text text-anchor="start" x="132" y="-1291.1" font-family="monospace" font-size="8.00">0x105f8:strr1, [fp, #&#45;0xc]</text>
<text text-anchor="start" x="132" y="-1282.1" font-family="monospace" font-size="8.00">0x105fc:ldrr0, [pc, #0x60]</text>
<text text-anchor="start" x="132" y="-1273.1" font-family="monospace" font-size="8.00">0x10600:bl#0x105bc</text>
</g>
<!-- 6&#45;&gt;4 -->
<g id="edge12" class="edge"><title>6&#45;&gt;4</title>
<path fill="none" stroke="black" d="M183.234,-1266.33C179.759,-1257.65 176.056,-1248.39 172.424,-1239.31"/>
<polygon fill="black" stroke="black" points="175.64,-1237.93 168.676,-1229.94 169.141,-1240.53 175.64,-1237.93"/>
</g>
<!-- 6&#45;&gt;7 -->
<g id="edge11" class="edge"><title>6&#45;&gt;7</title>
<path fill="none" stroke="black" stroke-dasharray="1,5" d="M221.372,-1266.26C225.962,-1254.74 230.152,-1242.12 232.5,-1230 261.152,-1082.08 270.162,-1036.88 232.5,-891 230.087,-881.652 226.14,-872.219 221.661,-863.428"/>
<polygon fill="black" stroke="black" points="224.682,-861.657 216.844,-854.529 218.526,-864.989 224.682,-861.657"/>
</g>
<!-- 8 -->
<g id="node9" class="node"><title>8</title>
<path fill="none" stroke="black" d="M121,-686.5C121,-686.5 266,-686.5 266,-686.5 272,-686.5 278,-692.5 278,-698.5 278,-698.5 278,-735.5 278,-735.5 278,-741.5 272,-747.5 266,-747.5 266,-747.5 121,-747.5 121,-747.5 115,-747.5 109,-741.5 109,-735.5 109,-735.5 109,-698.5 109,-698.5 109,-692.5 115,-686.5 121,-686.5"/>
<text text-anchor="middle" x="193.5" y="-737.1" font-family="monospace" font-size="8.00">0x010618 (0x0105e8) main+0x30</text>
<polyline fill="none" stroke="black" points="109,-730.5 278,-730.5 "/>
<text text-anchor="start" x="117" y="-720.1" font-family="monospace" font-size="8.00">0x10618:movr3, lr</text>
<text text-anchor="start" x="117" y="-711.1" font-family="monospace" font-size="8.00">0x1061c:ldrr0, [pc, #0x4c]</text>
<text text-anchor="start" x="117" y="-702.1" font-family="monospace" font-size="8.00">0x10620:movr1, r3</text>
<text text-anchor="start" x="117" y="-693.1" font-family="monospace" font-size="8.00">0x10624:bl#0x10358</text>
</g>
<!-- 7&#45;&gt;8 -->
<g id="edge2" class="edge"><title>7&#45;&gt;8</title>
<path fill="none" stroke="black" stroke-dasharray="1,5" d="M193.5,-784.475C193.5,-775.88 193.5,-766.576 193.5,-757.727"/>
<polygon fill="black" stroke="black" points="197,-757.618 193.5,-747.618 190,-757.618 197,-757.618"/>
</g>
<!-- 9 -->
<g id="node10" class="node"><title>9</title>
<path fill="none" stroke="black" d="M121,-579.5C121,-579.5 266,-579.5 266,-579.5 272,-579.5 278,-585.5 278,-591.5 278,-591.5 278,-637.5 278,-637.5 278,-643.5 272,-649.5 266,-649.5 266,-649.5 121,-649.5 121,-649.5 115,-649.5 109,-643.5 109,-637.5 109,-637.5 109,-591.5 109,-591.5 109,-585.5 115,-579.5 121,-579.5"/>
<text text-anchor="middle" x="193.5" y="-639.1" font-family="monospace" font-size="8.00">0x010628 (0x0105e8) main+0x40</text>
<polyline fill="none" stroke="black" points="109,-632.5 278,-632.5 "/>
<text text-anchor="start" x="117" y="-622.1" font-family="monospace" font-size="8.00">0x10628:ldrr3, [fp, #&#45;0xc]</text>
<text text-anchor="start" x="117" y="-613.1" font-family="monospace" font-size="8.00">0x1062c:addr3, r3, #4</text>
<text text-anchor="start" x="117" y="-604.1" font-family="monospace" font-size="8.00">0x10630:ldrr3, [r3]</text>
<text text-anchor="start" x="117" y="-595.1" font-family="monospace" font-size="8.00">0x10634:movr0, r3</text>
<text text-anchor="start" x="117" y="-586.1" font-family="monospace" font-size="8.00">0x10638:bl#0x10534</text>
</g>
<!-- 8&#45;&gt;9 -->
<g id="edge7" class="edge"><title>8&#45;&gt;9</title>
<path fill="none" stroke="black" stroke-dasharray="1,5" d="M193.5,-686.39C193.5,-678.15 193.5,-669.014 193.5,-660.117"/>
<polygon fill="black" stroke="black" points="197,-659.849 193.5,-649.849 190,-659.849 197,-659.849"/>
</g>
<!-- 9&#45;&gt;0 -->
<g id="edge6" class="edge"><title>9&#45;&gt;0</title>
<path fill="none" stroke="black" d="M176.698,-579.296C172.445,-570.639 167.78,-561.142 163.198,-551.813"/>
<polygon fill="black" stroke="black" points="166.212,-550.011 158.661,-542.578 159.929,-553.097 166.212,-550.011"/>
</g>
<!-- 9&#45;&gt;10 -->
<g id="edge5" class="edge"><title>9&#45;&gt;10</title>
<path fill="none" stroke="black" stroke-dasharray="1,5" d="M212.338,-579.332C217.617,-568.093 222.681,-555.316 225.5,-543 251.982,-427.318 258.49,-390.822 228.5,-276 226.061,-266.661 221.974,-257.246 217.386,-248.568"/>
<polygon fill="black" stroke="black" points="220.423,-246.828 212.471,-239.825 214.321,-250.258 220.423,-246.828"/>
</g>
<!-- 11 -->
<g id="node12" class="node"><title>11</title>
<path fill="none" stroke="black" d="M119,-98.5C119,-98.5 264,-98.5 264,-98.5 270,-98.5 276,-104.5 276,-110.5 276,-110.5 276,-129.5 276,-129.5 276,-135.5 270,-141.5 264,-141.5 264,-141.5 119,-141.5 119,-141.5 113,-141.5 107,-135.5 107,-129.5 107,-129.5 107,-110.5 107,-110.5 107,-104.5 113,-98.5 119,-98.5"/>
<text text-anchor="middle" x="191.5" y="-131.1" font-family="monospace" font-size="8.00">0x01064c (0x0105e8) main+0x64</text>
<polyline fill="none" stroke="black" points="107,-124.5 276,-124.5 "/>
<text text-anchor="start" x="115" y="-114.1" font-family="monospace" font-size="8.00">0x1064c:ldrr0, [pc, #0x24]</text>
<text text-anchor="start" x="115" y="-105.1" font-family="monospace" font-size="8.00">0x10650:bl#0x10370</text>
</g>
<!-- 10&#45;&gt;11 -->
<g id="edge3" class="edge"><title>10&#45;&gt;11</title>
<path fill="none" stroke="black" stroke-dasharray="1,5" d="M191.5,-178.06C191.5,-169.627 191.5,-160.439 191.5,-151.948"/>
<polygon fill="black" stroke="black" points="195,-151.676 191.5,-141.676 188,-151.676 195,-151.676"/>
</g>
<!-- 12 -->
<g id="node13" class="node"><title>12</title>
<path fill="none" stroke="black" d="M119,-0.5C119,-0.5 264,-0.5 264,-0.5 270,-0.5 276,-6.5 276,-12.5 276,-12.5 276,-49.5 276,-49.5 276,-55.5 270,-61.5 264,-61.5 264,-61.5 119,-61.5 119,-61.5 113,-61.5 107,-55.5 107,-49.5 107,-49.5 107,-12.5 107,-12.5 107,-6.5 113,-0.5 119,-0.5"/>
<text text-anchor="middle" x="191.5" y="-51.1" font-family="monospace" font-size="8.00">0x010654 (0x0105e8) main+0x6c</text>
<polyline fill="none" stroke="black" points="107,-44.5 276,-44.5 "/>
<text text-anchor="start" x="115" y="-34.1" font-family="monospace" font-size="8.00">0x10654:movr3, #0</text>
<text text-anchor="start" x="115" y="-25.1" font-family="monospace" font-size="8.00">0x10658:movr0, r3</text>
<text text-anchor="start" x="115" y="-16.1" font-family="monospace" font-size="8.00">0x1065c:subsp, fp, #4</text>
<text text-anchor="start" x="115" y="-7.1" font-family="monospace" font-size="8.00">0x10660:pop{fp, pc}</text>
</g>
<!-- 11&#45;&gt;12 -->
<g id="edge1" class="edge"><title>11&#45;&gt;12</title>
<path fill="none" stroke="black" stroke-dasharray="1,5" d="M191.5,-98.3822C191.5,-90.4234 191.5,-81.0359 191.5,-71.8654"/>
<polygon fill="black" stroke="black" points="195,-71.6914 191.5,-61.6914 188,-71.6915 195,-71.6914"/>
</g>
</g>
</svg>
