<?xml version="1.0" encoding="UTF-8" standalone="no"?>
<!DOCTYPE svg PUBLIC "-//W3C//DTD SVG 1.0//EN" "http://www.w3.org/TR/2001/PR-SVG-20010719/DTD/svg10.dtd">
<svg width="59cm" height="42cm" viewBox="298 297 1176 824" xmlns="http://www.w3.org/2000/svg" xmlns:xlink="http://www.w3.org/1999/xlink">
  <g>
    <polyline style="fill: none; fill-opacity:0; stroke-width: 2; stroke: #000000" points="799.261,699 799.261,701 597,701 597,1028 718.892,1028 "/>
    <polyline style="fill: none; fill-opacity:0; stroke-width: 2; stroke: #000000" points="711.128,1033 721.128,1028 711.128,1023 "/>
    <text font-size="12.7998" style="fill: #000000;text-anchor:middle;font-family:sans-serif;font-style:normal;font-weight:normal" x="647.38" y="1044">error</text>
  </g>
  <g>
    <rect style="fill: #ffffff" x="532.521" y="417" width="533.479" height="564" rx="20" ry="20"/>
    <rect style="fill: none; fill-opacity:0; stroke-width: 2; stroke-linejoin: round; stroke: #000000" x="532.521" y="417" width="533.479" height="564" rx="20" ry="20"/>
  </g>
  <g>
    <polyline style="fill: none; fill-opacity:0; stroke-width: 2; stroke-linejoin: round; stroke: #000000" points="688.877,607.504 688.877,693.008 599.754,693.008 599.754,788 651.492,788 "/>
    <polyline style="fill: none; fill-opacity:0; stroke-width: 2; stroke: #000000" points="643.728,793 653.728,788 643.728,783 "/>
    <text font-size="12.7998" style="fill: #000000;text-anchor:middle;font-family:sans-serif;font-style:normal;font-weight:normal" x="600.765" y="800.546">error</text>
  </g>
  <g>
    <rect style="fill: #ffffff" x="559.755" y="480" width="258.245" height="255.009" rx="20" ry="20"/>
    <rect style="fill: none; fill-opacity:0; stroke-width: 2; stroke-linejoin: round; stroke: #000000" x="559.755" y="480" width="258.245" height="255.009" rx="20" ry="20"/>
  </g>
  <rect style="fill: #000000" x="640" y="560" width="160" height="8"/>
  <g>
    <rect style="fill: #ffffff" x="574.952" y="600" width="170.3" height="36" rx="20" ry="20"/>
    <rect style="fill: none; fill-opacity:0; stroke-width: 2; stroke-linejoin: round; stroke: #000000" x="574.952" y="600" width="170.3" height="36" rx="20" ry="20"/>
    <text font-size="12.8" style="fill: #000000;text-anchor:middle;font-family:sans-serif;font-style:normal;font-weight:normal" x="660.102" y="621.9">
      <tspan x="660.102" y="621.9">Prepare to run program</tspan>
    </text>
  </g>
  <rect style="fill: #000000" x="640" y="710.21" width="160" height="8"/>
  <text font-size="12.8" style="fill: #000000;text-anchor:start;font-family:sans-serif;font-style:normal;font-weight:normal" x="585" y="495">
    <tspan x="585" y="495">guarantee</tspan>
    <tspan x="585" y="511">CFI-Checker</tspan>
    <tspan x="585" y="527">termination</tspan>
  </text>
  <ellipse style="fill: #000000" cx="794.832" cy="309.814" rx="10" ry="10"/>
  <g>
    <polyline style="fill: none; fill-opacity:0; stroke-width: 2; stroke-linejoin: round; stroke: #000000" points="794.832,319.814 794.832,339.907 794.925,339.907 794.925,355.528 "/>
    <polyline style="fill: none; fill-opacity:0; stroke-width: 2; stroke: #000000" points="789.925,347.764 794.925,357.764 799.925,347.764 "/>
  </g>
  <g>
    <rect style="fill: #ffffff" x="730" y="360" width="129.85" height="36" rx="20" ry="20"/>
    <rect style="fill: none; fill-opacity:0; stroke-width: 2; stroke: #000000" x="730" y="360" width="129.85" height="36" rx="20" ry="20"/>
    <text font-size="12.8" style="fill: #000000;text-anchor:middle;font-family:sans-serif;font-style:normal;font-weight:normal" x="794.925" y="381.9">
      <tspan x="794.925" y="381.9">Create ringbuffer</tspan>
    </text>
  </g>
  <rect style="fill: #000000" x="693.03" y="440" width="216.39" height="8"/>
  <g>
    <polyline style="fill: none; fill-opacity:0; stroke-width: 2; stroke: #000000" points="794.925,396 801.225,396 801.225,435.528 "/>
    <polyline style="fill: none; fill-opacity:0; stroke-width: 2; stroke: #000000" points="796.225,427.764 801.225,437.764 806.225,427.764 "/>
  </g>
  <g>
    <polyline style="fill: none; fill-opacity:0; stroke-width: 2; stroke: #000000" points="780,568 780,705.738 "/>
    <polyline style="fill: none; fill-opacity:0; stroke-width: 2; stroke: #000000" points="775,697.974 780,707.974 785,697.974 "/>
  </g>
  <g>
    <rect style="fill: #ffffff" x="655.964" y="770" width="128" height="36" rx="20" ry="20"/>
    <rect style="fill: none; fill-opacity:0; stroke-width: 2; stroke: #000000" x="655.964" y="770" width="128" height="36" rx="20" ry="20"/>
    <text font-size="12.8" style="fill: #000000;text-anchor:middle;font-family:sans-serif;font-style:normal;font-weight:normal" x="719.964" y="791.9">
      <tspan x="719.964" y="791.9">Kill CFI-Checker  </tspan>
    </text>
  </g>
  <g>
    <line style="fill: none; fill-opacity:0; stroke-width: 2; stroke: #000000" x1="1115.03" y1="787.879" x2="783.964" y2="788"/>
    <polygon style="fill: #000000" points="1115.03,792.879 1131.03,787.873 1115.02,782.879 "/>
    <polygon style="fill: none; fill-opacity:0; stroke-width: 2; stroke: #000000" points="1115.03,792.879 1131.03,787.873 1115.02,782.879 "/>
    <text font-size="12.7998" style="fill: #000000;text-anchor:middle;font-family:sans-serif;font-style:normal;font-weight:normal" x="823" y="783">SIGTERM</text>
  </g>
  <rect style="fill: #000000" x="700" y="960" width="186.073" height="8"/>
  <g>
    <polyline style="fill: none; fill-opacity:0; stroke-width: 2; stroke: #000000" points="793.036,968 791.914,968 791.914,1005.53 "/>
    <polyline style="fill: none; fill-opacity:0; stroke-width: 2; stroke: #000000" points="786.914,997.764 791.914,1007.76 796.914,997.764 "/>
  </g>
  <g>
    <ellipse style="fill: #ffffff" cx="791.976" cy="1105" rx="15" ry="15"/>
    <ellipse style="fill: none; fill-opacity:0; stroke-width: 2; stroke: #000000" cx="791.976" cy="1105" rx="15" ry="15"/>
    <ellipse style="fill: #000000" cx="791.976" cy="1105" rx="10" ry="10"/>
  </g>
  <g>
    <polyline style="fill: none; fill-opacity:0; stroke-width: 2; stroke: #000000" points="791.914,1046 791.914,1068 791.976,1068 791.976,1085.53 "/>
    <polyline style="fill: none; fill-opacity:0; stroke-width: 2; stroke: #000000" points="786.976,1077.76 791.976,1087.76 796.976,1077.76 "/>
  </g>
  <g>
    <polyline style="fill: none; fill-opacity:0; stroke-width: 2; stroke: #000000" points="720.079,448 720.079,488.506 720,488.506 720,555.528 "/>
    <polyline style="fill: none; fill-opacity:0; stroke-width: 2; stroke: #000000" points="715,547.764 720,557.764 725,547.764 "/>
  </g>
  <g>
    <polyline style="fill: none; fill-opacity:0; stroke-width: 2; stroke: #000000" points="719.964,806 723.26,806 723.26,955.528 "/>
    <polyline style="fill: none; fill-opacity:0; stroke-width: 2; stroke: #000000" points="718.26,947.764 723.26,957.764 728.26,947.764 "/>
  </g>
  <g>
    <polyline style="fill: none; fill-opacity:0; stroke-width: 2; stroke: #000000" points="660,568 660,588 660.102,588 660.102,595.528 "/>
    <polyline style="fill: none; fill-opacity:0; stroke-width: 2; stroke: #000000" points="655.102,587.764 660.102,597.764 665.102,587.764 "/>
  </g>
  <g>
    <g>
      <rect style="fill: #ffffff" x="1133" y="687.81" width="340" height="200" rx="20" ry="20"/>
      <rect style="fill: none; fill-opacity:0; stroke-width: 2; stroke-linejoin: round; stroke: #000000" x="1133" y="687.81" width="340" height="200" rx="20" ry="20"/>
    </g>
    <g>
      <rect style="fill: #ffffff" x="1293" y="827.81" width="168.45" height="36" rx="20" ry="20"/>
      <rect style="fill: none; fill-opacity:0; stroke-width: 2; stroke-linejoin: round; stroke: #000000" x="1293" y="827.81" width="168.45" height="36" rx="20" ry="20"/>
      <text font-size="12.8" style="fill: #000000;text-anchor:middle;font-family:sans-serif;font-style:normal;font-weight:normal" x="1377.23" y="849.71">
        <tspan x="1377.23" y="849.71">Pass through heuristics</tspan>
      </text>
    </g>
    <g>
      <polyline style="fill: none; fill-opacity:0; stroke-width: 2; stroke-linejoin: round; stroke: #000000" points="1306.35,745.81 1377.23,745.81 1377.23,823.338 "/>
      <polyline style="fill: none; fill-opacity:0; stroke-width: 2; stroke: #000000" points="1372.23,815.574 1377.23,825.574 1382.23,815.574 "/>
    </g>
    <g>
      <polyline style="fill: none; fill-opacity:0; stroke-width: 2; stroke: #000000" points="1293,845.81 1229.67,845.81 1229.67,768.282 "/>
      <polyline style="fill: none; fill-opacity:0; stroke-width: 2; stroke: #000000" points="1234.67,776.046 1229.67,766.046 1224.67,776.046 "/>
    </g>
    <text font-size="12.8" style="fill: #000000;text-anchor:start;font-family:sans-serif;font-style:normal;font-weight:normal" x="1142.98" y="707.81">
      <tspan x="1142.98" y="707.81">CFI-Checker</tspan>
    </text>
    <g>
      <rect style="fill: #ffffff" x="1153" y="727.81" width="153.35" height="36" rx="20" ry="20"/>
      <rect style="fill: none; fill-opacity:0; stroke-width: 2; stroke: #000000" x="1153" y="727.81" width="153.35" height="36" rx="20" ry="20"/>
      <text font-size="12.8" style="fill: #000000;text-anchor:middle;font-family:sans-serif;font-style:normal;font-weight:normal" x="1229.67" y="749.71">
        <tspan x="1229.67" y="749.71">Read from ringbuffer</tspan>
      </text>
    </g>
  </g>
  <g>
    <polyline style="fill: none; fill-opacity:0; stroke-width: 2; stroke: #000000" points="882.372,448 882.372,587.906 1229.67,587.906 1229.67,723.338 "/>
    <polyline style="fill: none; fill-opacity:0; stroke-width: 2; stroke: #000000" points="1224.67,715.574 1229.67,725.574 1234.67,715.574 "/>
  </g>
  <g>
    <rect style="fill: #ffffff" x="723.364" y="1010" width="137.1" height="36" rx="20" ry="20"/>
    <rect style="fill: none; fill-opacity:0; stroke-width: 2; stroke: #000000" x="723.364" y="1010" width="137.1" height="36" rx="20" ry="20"/>
    <text font-size="12.8" style="fill: #000000;text-anchor:middle;font-family:sans-serif;font-style:normal;font-weight:normal" x="791.914" y="1031.9">
      <tspan x="791.914" y="1031.9">Destroy ringbuffer</tspan>
    </text>
  </g>
  <g>
    <polyline style="fill: none; fill-opacity:0; stroke-width: 2; stroke: #000000" points="720,718.21 720,759.98 719.964,759.98 719.964,765.528 "/>
    <polyline style="fill: none; fill-opacity:0; stroke-width: 2; stroke: #000000" points="714.964,757.764 719.964,767.764 724.964,757.764 "/>
  </g>
  <g>
    <polyline style="fill: none; fill-opacity:0; stroke-width: 2; stroke: #000000" points="1303,887.81 1303,929.008 862.814,929.008 862.814,955.528 "/>
    <polyline style="fill: none; fill-opacity:0; stroke-width: 2; stroke: #000000" points="857.814,947.764 862.814,957.764 867.814,947.764 "/>
    <text font-size="12.7998" style="fill: #000000;text-anchor:middle;font-family:sans-serif;font-style:normal;font-weight:normal" x="1133.25" y="945.018">SIGTERM/exit()</text>
  </g>
  <g>
    <polyline style="fill: none; fill-opacity:0; stroke-width: 2; stroke: #000000" points="378,663.841 378,680 660,680 660,705.738 "/>
    <polyline style="fill: none; fill-opacity:0; stroke-width: 2; stroke: #000000" points="655,697.974 660,707.974 665,697.974 "/>
    <text font-size="12.7998" style="fill: #000000;text-anchor:middle;font-family:sans-serif;font-style:normal;font-weight:normal" x="470.014" y="693.22">termination</text>
  </g>
  <g>
    <polyline style="fill: none; fill-opacity:0; stroke-width: 2; stroke: #000000" points="574.952,618 515.476,618 515.476,618.341 460.472,618.341 "/>
    <polyline style="fill: none; fill-opacity:0; stroke-width: 2; stroke: #000000" points="468.236,613.341 458.236,618.341 468.236,623.341 "/>
  </g>
  <g>
    <rect style="fill: #000000" x="300" y="572.841" width="156" height="91" rx="20" ry="20"/>
    <rect style="fill: none; fill-opacity:0; stroke-width: 2; stroke-linejoin: round; stroke: #000000" x="300" y="572.841" width="156" height="91" rx="20" ry="20"/>
  </g>
  <text font-size="12.8" style="fill: #ffffff;text-anchor:start;font-family:sans-serif;font-style:normal;font-weight:normal" x="312.217" y="592.012">
    <tspan x="312.217" y="592.012">External program</tspan>
    <tspan x="312.217" y="608.012">(black box)</tspan>
  </text>
  <g>
    <ellipse style="fill: #ffffff" cx="1082" cy="378" rx="15" ry="15"/>
    <ellipse style="fill: none; fill-opacity:0; stroke-width: 2; stroke-linejoin: round; stroke: #000000" cx="1082" cy="378" rx="15" ry="15"/>
    <ellipse style="fill: #000000" cx="1082" cy="378" rx="10" ry="10"/>
  </g>
  <g>
    <polyline style="fill: none; fill-opacity:0; stroke-width: 2; stroke-linejoin: round; stroke: #000000" points="859.85,378 869.85,378 1057,378 1062.53,378 "/>
    <polyline style="fill: none; fill-opacity:0; stroke-width: 2; stroke: #000000" points="1054.76,383 1064.76,378 1054.76,373 "/>
    <text font-size="12.7998" style="fill: #000000;text-anchor:middle;font-family:sans-serif;font-style:normal;font-weight:normal" x="960.754" y="392.008">error/exit();</text>
  </g>
  <text font-size="12.8" style="fill: #000000;text-anchor:start;font-family:sans-serif;font-style:normal;font-weight:normal" x="969" y="447">
    <tspan x="969" y="447">guarantee</tspan>
    <tspan x="969" y="463">ringbuffer</tspan>
    <tspan x="969" y="479">destruction</tspan>
  </text>
</svg>
