<?xml version="1.0" encoding="UTF-8" standalone="no"?>
<!-- Created by diasvg.py -->
<svg width="30.162cm" height="27.750cm" viewBox="42.950 -0.050 73.112 27.700"
 xmlns="http://www.w3.org/2000/svg"
 xmlns:xlink="http://www.w3.org/1999/xlink">
<rect x="56.000" y="1.000" width="2.000" height="3.000" fill="#FFFFFF" stroke="none" stroke-width="0"/>
<rect x="56.000" y="1.000" width="2.000" height="3.000" fill="none" stroke="#FFFFFF" stroke-width="0.100" />
<rect x="44.000" y="1.000" width="4.000" height="3.000" fill="#FFFFFF" stroke="none" stroke-width="0"/>
<rect x="44.000" y="1.000" width="4.000" height="3.000" fill="none" stroke="#FFFFFF" stroke-width="0.100" />
<rect x="44.000" y="8.000" width="4.000" height="3.000" fill="#FFFFFF" stroke="none" stroke-width="0"/>
<rect x="44.000" y="8.000" width="4.000" height="3.000" fill="none" stroke="#FFFFFF" stroke-width="0.100" />
<rect x="68.000" y="8.000" width="4.000" height="3.000" fill="#FFFFFF" stroke="none" stroke-width="0"/>
<rect x="68.000" y="8.000" width="4.000" height="3.000" fill="none" stroke="#FFFFFF" stroke-width="0.100" />
<rect x="68.000" y="15.000" width="4.000" height="3.000" fill="#FFFFFF" stroke="none" stroke-width="0"/>
<rect x="68.000" y="15.000" width="4.000" height="3.000" fill="none" stroke="#FFFFFF" stroke-width="0.100" />
<rect x="50.000" y="15.000" width="4.000" height="3.000" fill="#FFFFFF" stroke="none" stroke-width="0"/>
<rect x="50.000" y="15.000" width="4.000" height="3.000" fill="none" stroke="#FFFFFF" stroke-width="0.100" />
<rect x="44.000" y="22.000" width="4.000" height="3.000" fill="#FFFFFF" stroke="none" stroke-width="0"/>
<rect x="44.000" y="22.000" width="4.000" height="3.000" fill="none" stroke="#FFFFFF" stroke-width="0.100" />
<rect x="60.000" y="22.000" width="12.000" height="3.000" fill="#FFFFFF" stroke="none" stroke-width="0"/>
<rect x="60.000" y="22.000" width="12.000" height="3.000" fill="none" stroke="#FFFFFF" stroke-width="0.100" />
<rect x="56.000" y="22.000" width="4.000" height="3.000" fill="#FFFFFF" stroke="none" stroke-width="0"/>
<rect x="56.000" y="22.000" width="4.000" height="3.000" fill="none" stroke="#000000" stroke-width="0.100" />
<rect x="52.000" y="22.000" width="4.000" height="3.000" fill="#FFFFFF" stroke="none" stroke-width="0"/>
<rect x="52.000" y="22.000" width="4.000" height="3.000" fill="none" stroke="#000000" stroke-width="0.100" />
<rect x="48.000" y="22.000" width="4.000" height="3.000" fill="#FFFFFF" stroke="none" stroke-width="0"/>
<rect x="48.000" y="22.000" width="4.000" height="3.000" fill="none" stroke="#000000" stroke-width="0.100" />
<rect x="54.000" y="15.000" width="10.000" height="3.000" fill="#FFFFFF" stroke="none" stroke-width="0"/>
<rect x="54.000" y="15.000" width="10.000" height="3.000" fill="none" stroke="#000000" stroke-width="0.100" stroke-dasharray="0.10,0.10"/>
<rect x="64.000" y="15.000" width="4.000" height="3.000" fill="#FFFFFF" stroke="none" stroke-width="0"/>
<rect x="64.000" y="15.000" width="4.000" height="3.000" fill="none" stroke="#000000" stroke-width="0.100" />
<rect x="48.000" y="8.000" width="8.000" height="3.000" fill="#FFFFFF" stroke="none" stroke-width="0"/>
<rect x="48.000" y="8.000" width="8.000" height="3.000" fill="none" stroke="#000000" stroke-width="0.100" />
<rect x="60.000" y="8.000" width="8.000" height="3.000" fill="#FFFFFF" stroke="none" stroke-width="0"/>
<rect x="60.000" y="8.000" width="8.000" height="3.000" fill="none" stroke="#000000" stroke-width="0.100" />
<rect x="56.000" y="8.000" width="4.000" height="3.000" fill="#FFFFFF" stroke="none" stroke-width="0"/>
<rect x="56.000" y="8.000" width="4.000" height="3.000" fill="none" stroke="#000000" stroke-width="0.100" />
<rect x="48.000" y="1.000" width="8.000" height="3.000" fill="#FFFFFF" stroke="none" stroke-width="0"/>
<rect x="48.000" y="1.000" width="8.000" height="3.000" fill="none" stroke="#000000" stroke-width="0.100" />
<text x="49.000" y="9.000"  fill="#000000" text-anchor="start" font-size="0.80" font-family="sans" font-style="normal" font-weight="400">
ringbuffer_t*</text>
<text x="53.000" y="23.000"  fill="#000000" text-anchor="start" font-size="0.80" font-family="sans" font-style="normal" font-weight="400">
uint32_t</text>
<text x="53.000" y="23.800"  fill="#000000" text-anchor="start" font-size="0.80" font-family="sans" font-style="normal" font-weight="400">
read</text>
<text x="53.000" y="24.600"  fill="#000000" text-anchor="start" font-size="0.80" font-family="sans" font-style="normal" font-weight="400">
index</text>
<text x="57.000" y="23.000"  fill="#000000" text-anchor="start" font-size="0.80" font-family="sans" font-style="normal" font-weight="400">
uint32_t</text>
<text x="57.000" y="23.800"  fill="#000000" text-anchor="start" font-size="0.80" font-family="sans" font-style="normal" font-weight="400">
write</text>
<text x="57.000" y="24.600"  fill="#000000" text-anchor="start" font-size="0.80" font-family="sans" font-style="normal" font-weight="400">
index</text>
<text x="49.000" y="23.000"  fill="#000000" text-anchor="start" font-size="0.80" font-family="sans" font-style="normal" font-weight="400">
uint32_t</text>
<text x="49.000" y="23.800"  fill="#000000" text-anchor="start" font-size="0.80" font-family="sans" font-style="normal" font-weight="400">
size</text>
<line x1="60.000" y1="22.000" x2="60.000" y2="25.000" stroke="#000000" stroke-width="0.100" />
<line x1="43.000" y1="25.000" x2="48.000" y2="25.000" stroke="#000000" stroke-width="0.100" stroke-dasharray="1.00,1.00"/>
<line x1="43.000" y1="22.000" x2="48.000" y2="22.000" stroke="#000000" stroke-width="0.100" stroke-dasharray="1.00,1.00"/>
<polyline fill="none" stroke="#000000" stroke-width="0.100" stroke-dasharray="0.10,0.10" points="64.000,9.000 64.000,13.000 54.000,13.000 54.000,14.776 "/>
<polyline fill="none" stroke="#000000" stroke-width="0.100"  points="53.750,14.388 54.000,14.888 54.250,14.388 "/>
<line x1="48.000" y1="27.000" x2="48.000" y2="25.224" stroke="#000000" stroke-width="0.100" stroke-dasharray="0.10,0.10"/>
<polyline fill="none" stroke="#000000" stroke-width="0.100"  points="48.250,25.612 48.000,25.112 47.750,25.612 "/>
<text x="46.000" y="27.550"  fill="#000000" text-anchor="start" font-size="0.80" font-family="sans" font-style="normal" font-weight="400">
Page boundary of mmap-ed shared memory.</text>
<text x="61.000" y="23.000"  fill="#000000" text-anchor="start" font-size="0.80" font-family="sans" font-style="normal" font-weight="400">
unit of type regval_t</text>
<text x="61.000" y="23.800"  fill="#000000" text-anchor="start" font-size="0.80" font-family="sans" font-style="normal" font-weight="400">
repeated &quot;size&quot; times</text>
<line x1="54.000" y1="15.000" x2="61.000" y2="15.000" stroke="#000000" stroke-width="0.100" />
<line x1="54.000" y1="18.000" x2="61.000" y2="18.000" stroke="#000000" stroke-width="0.100" />
<line x1="54.000" y1="15.000" x2="54.000" y2="18.000" stroke="#000000" stroke-width="0.100" />
<text x="65.000" y="16.000"  fill="#000000" text-anchor="start" font-size="0.80" font-family="sans" font-style="normal" font-weight="400">
null</text>
<text x="65.000" y="16.800"  fill="#000000" text-anchor="start" font-size="0.80" font-family="sans" font-style="normal" font-weight="400">
char</text>
<text x="55.000" y="16.000"  fill="#000000" text-anchor="start" font-size="0.80" font-family="sans" font-style="normal" font-weight="400">
char[] buffer name</text>
<text x="57.000" y="9.000"  fill="#000000" text-anchor="start" font-size="0.80" font-family="sans" font-style="normal" font-weight="400">
int</text>
<text x="57.000" y="9.800"  fill="#000000" text-anchor="start" font-size="0.80" font-family="sans" font-style="normal" font-weight="400">
fd</text>
<text x="61.000" y="9.000"  fill="#000000" text-anchor="start" font-size="0.80" font-family="sans" font-style="normal" font-weight="400">
char*</text>
<text x="61.000" y="9.800"  fill="#000000" text-anchor="start" font-size="0.80" font-family="sans" font-style="normal" font-weight="400">
name</text>
<polyline fill="none" stroke="#000000" stroke-width="0.100" stroke-dasharray="0.10,0.10" points="52.000,10.000 52.000,13.000 48.000,13.000 48.000,21.776 "/>
<polyline fill="none" stroke="#000000" stroke-width="0.100"  points="47.750,21.388 48.000,21.888 48.250,21.388 "/>
<line x1="49.000" y1="18.000" x2="54.000" y2="18.000" stroke="#000000" stroke-width="0.100" stroke-dasharray="1.00,1.00"/>
<line x1="49.000" y1="15.000" x2="54.000" y2="15.000" stroke="#000000" stroke-width="0.100" stroke-dasharray="1.00,1.00"/>
<text x="49.000" y="2.000"  fill="#000000" text-anchor="start" font-size="0.80" font-family="sans" font-style="normal" font-weight="400">
ringbuffer_info_t*</text>
<polyline fill="none" stroke="#000000" stroke-width="0.100" stroke-dasharray="0.10,0.10" points="52.000,3.000 52.000,6.000 48.000,6.000 48.000,7.776 "/>
<polyline fill="none" stroke="#000000" stroke-width="0.100"  points="47.750,7.388 48.000,7.888 48.250,7.388 "/>
<line x1="56.000" y1="4.000" x2="58.513" y2="4.000" stroke="#000000" stroke-width="0.100" stroke-dasharray="1.00,1.00"/>
<polygon fill="#000000" stroke="none" stroke-width="0.100" points="58.888,4.000 58.388,4.250 58.513,4.000 58.388,3.750 "/>
<polygon fill="none" stroke="#000000" stroke-width="0.100"  points="58.888,4.000 58.388,4.250 58.513,4.000 58.388,3.750 "/>
<line x1="56.000" y1="1.000" x2="58.513" y2="1.000" stroke="#000000" stroke-width="0.100" stroke-dasharray="1.00,1.00"/>
<polygon fill="#000000" stroke="none" stroke-width="0.100" points="58.888,1.000 58.388,1.250 58.513,1.000 58.388,0.750 "/>
<polygon fill="none" stroke="#000000" stroke-width="0.100"  points="58.888,1.000 58.388,1.250 58.513,1.000 58.388,0.750 "/>
<line x1="43.000" y1="4.000" x2="48.000" y2="4.000" stroke="#000000" stroke-width="0.100" stroke-dasharray="1.00,1.00"/>
<line x1="43.000" y1="1.000" x2="48.000" y2="1.000" stroke="#000000" stroke-width="0.100" stroke-dasharray="1.00,1.00"/>
<line x1="63.000" y1="15.000" x2="64.000" y2="15.000" stroke="#000000" stroke-width="0.100" />
<line x1="63.000" y1="18.000" x2="64.000" y2="18.000" stroke="#000000" stroke-width="0.100" />
<line x1="68.000" y1="18.000" x2="72.513" y2="18.000" stroke="#000000" stroke-width="0.100" stroke-dasharray="1.00,1.00"/>
<polygon fill="#000000" stroke="none" stroke-width="0.100" points="72.888,18.000 72.388,18.250 72.513,18.000 72.388,17.750 "/>
<polygon fill="none" stroke="#000000" stroke-width="0.100"  points="72.888,18.000 72.388,18.250 72.513,18.000 72.388,17.750 "/>
<line x1="68.000" y1="15.000" x2="72.513" y2="15.000" stroke="#000000" stroke-width="0.100" stroke-dasharray="1.00,1.00"/>
<polygon fill="#000000" stroke="none" stroke-width="0.100" points="72.888,15.000 72.388,15.250 72.513,15.000 72.388,14.750 "/>
<polygon fill="none" stroke="#000000" stroke-width="0.100"  points="72.888,15.000 72.388,15.250 72.513,15.000 72.388,14.750 "/>
<line x1="43.000" y1="11.000" x2="48.000" y2="11.000" stroke="#000000" stroke-width="0.100" stroke-dasharray="1.00,1.00"/>
<line x1="43.000" y1="8.000" x2="48.000" y2="8.000" stroke="#000000" stroke-width="0.100" stroke-dasharray="1.00,1.00"/>
<line x1="68.000" y1="11.000" x2="72.513" y2="11.000" stroke="#000000" stroke-width="0.100" stroke-dasharray="1.00,1.00"/>
<polygon fill="#000000" stroke="none" stroke-width="0.100" points="72.888,11.000 72.388,11.250 72.513,11.000 72.388,10.750 "/>
<polygon fill="none" stroke="#000000" stroke-width="0.100"  points="72.888,11.000 72.388,11.250 72.513,11.000 72.388,10.750 "/>
<line x1="68.000" y1="8.000" x2="72.513" y2="8.000" stroke="#000000" stroke-width="0.100" stroke-dasharray="1.00,1.00"/>
<polygon fill="#000000" stroke="none" stroke-width="0.100" points="72.888,8.000 72.388,8.250 72.513,8.000 72.388,7.750 "/>
<polygon fill="none" stroke="#000000" stroke-width="0.100"  points="72.888,8.000 72.388,8.250 72.513,8.000 72.388,7.750 "/>
<polygon fill="#FFFFFF" stroke="none" stroke-width="0.100" points="60.000,0.000 71.850,0.000 72.450,0.600 72.450,6.500 60.000,6.500 "/>
<polygon fill="none" stroke="#000000" stroke-width="0.100"  points="60.000,0.000 71.850,0.000 72.450,0.600 72.450,6.500 60.000,6.500 "/>
<polyline fill="none" stroke="#000000" stroke-width="0.050"  points="71.850,0.000 71.850,0.600 72.450,0.600 "/>
<text x="60.350" y="1.245"  fill="#000000" text-anchor="start" font-size="0.80" font-family="monospace" font-style="normal" font-weight="400">
Memory layout representation</text>
<text x="60.350" y="2.045"  fill="#000000" text-anchor="start" font-size="0.80" font-family="monospace" font-style="normal" font-weight="400">
of a ringbuffer attached to</text>
<text x="60.350" y="2.845"  fill="#000000" text-anchor="start" font-size="0.80" font-family="monospace" font-style="normal" font-weight="400">
a process. The four sections</text>
<text x="60.350" y="3.645"  fill="#000000" text-anchor="start" font-size="0.80" font-family="monospace" font-style="normal" font-weight="400">
shown are all part of linear</text>
<text x="60.350" y="4.445"  fill="#000000" text-anchor="start" font-size="0.80" font-family="monospace" font-style="normal" font-weight="400">
process virtual memory, but</text>
<text x="60.350" y="5.245"  fill="#000000" text-anchor="start" font-size="0.80" font-family="monospace" font-style="normal" font-weight="400">
no guarantee is given on their</text>
<text x="60.350" y="6.045"  fill="#000000" text-anchor="start" font-size="0.80" font-family="monospace" font-style="normal" font-weight="400">
order relative to each other.</text>
<line x1="60.000" y1="22.000" x2="72.513" y2="22.000" stroke="#000000" stroke-width="0.100" />
<polygon fill="#000000" stroke="none" stroke-width="0.100" points="72.888,22.000 72.388,22.250 72.513,22.000 72.388,21.750 "/>
<polygon fill="none" stroke="#000000" stroke-width="0.100"  points="72.888,22.000 72.388,22.250 72.513,22.000 72.388,21.750 "/>
<line x1="60.000" y1="25.000" x2="72.513" y2="25.000" stroke="#000000" stroke-width="0.100" />
<polygon fill="#000000" stroke="none" stroke-width="0.100" points="72.888,25.000 72.388,25.250 72.513,25.000 72.388,24.750 "/>
<polygon fill="none" stroke="#000000" stroke-width="0.100"  points="72.888,25.000 72.388,25.250 72.513,25.000 72.388,24.750 "/>
</svg>